<svg width="22" height="25" viewBox="0 0 22 25" fill="none" xmlns="http://www.w3.org/2000/svg">
<path d="M17.5493 23.997C16.1883 25.3162 14.7024 25.1079 13.272 24.483C11.7583 23.8442 10.3696 23.8164 8.77261 24.483C6.77286 25.344 5.71744 25.0941 4.52315 23.997C-2.25377 17.0117 -1.2539 6.3742 6.43957 5.98536C8.31434 6.08257 9.61973 7.013 10.7168 7.09633C12.3555 6.76303 13.9247 5.80482 15.6745 5.92981C17.7715 6.09645 19.3546 6.92968 20.3961 8.42949C16.0634 11.0264 17.091 16.734 21.0627 18.331C20.2712 20.4141 19.2435 22.4833 17.5354 24.0109L17.5493 23.997ZM10.5779 5.90203C10.3696 2.8052 12.8832 0.249968 15.7717 0C16.1745 3.58288 12.5221 6.24921 10.5779 5.90203Z" fill="white"/>
</svg>
